HIERARCHY
ROOT joint_Root
{
	OFFSET 0.0 0.0 0.0
	CHANNELS 6 Xposition Yposition Zposition Zrotation Xrotation Yrotation 
	JOINT Hips
	{
		OFFSET -0.726466 93.3139 -2.00062
		CHANNELS 6 Xposition Yposition Zposition Zrotation Xrotation Yrotation 
		JOINT Spine
		{
			OFFSET 15.7357 0.0 0.0
			CHANNELS 6 Xposition Yposition Zposition Zrotation Xrotation Yrotation 
			JOINT Chest
			{
				OFFSET 8.98455 -0.406207 0.0
				CHANNELS 6 Xposition Yposition Zposition Zrotation Xrotation Yrotation 
				JOINT Neck
				{
					OFFSET 16.3773 0.0 0.0
					CHANNELS 6 Xposition Yposition Zposition Zrotation Xrotation Yrotation 
					JOINT Head
					{
						OFFSET 6.45672 0.0 0.0
						CHANNELS 6 Xposition Yposition Zposition Zrotation Xrotation Yrotation 
						End Site
						{
							OFFSET 0.0 0.0 0.0
						}
					}
				}
				JOINT Shoulder_L
				{
					OFFSET 12.9942 -0.242716 4.98039
					CHANNELS 6 Xposition Yposition Zposition Zrotation Xrotation Yrotation 
					JOINT UpperArm_L
					{
						OFFSET 5.34809 0.0 0.0
						CHANNELS 6 Xposition Yposition Zposition Zrotation Xrotation Yrotation 
						JOINT LowerArm_L
						{
							OFFSET 24.3286 1.87007e-05 0.0
							CHANNELS 6 Xposition Yposition Zposition Zrotation Xrotation Yrotation 
							JOINT Hand_L
							{
								OFFSET 22.2916 0.0 0.0
								CHANNELS 6 Xposition Yposition Zposition Zrotation Xrotation Yrotation 
								End Site
								{
									OFFSET 0.0 0.0 0.0
								}
							}
						}
					}
				}
				JOINT Shoulder_R
				{
					OFFSET 12.9945 -0.242716 -4.98039
					CHANNELS 6 Xposition Yposition Zposition Zrotation Xrotation Yrotation 
					JOINT UpperArm_R
					{
						OFFSET -5.34813 0.0 0.0
						CHANNELS 6 Xposition Yposition Zposition Zrotation Xrotation Yrotation 
						JOINT LowerArm_R
						{
							OFFSET -24.3289 0.000322201 0.0
							CHANNELS 6 Xposition Yposition Zposition Zrotation Xrotation Yrotation 
							JOINT Hand_R
							{
								OFFSET -22.2915 -0.000108084 0.0
								CHANNELS 6 Xposition Yposition Zposition Zrotation Xrotation Yrotation 
								End Site
								{
									OFFSET 0.0 0.0 0.0
								}
							}
						}
					}
				}
			}
		}
		JOINT UpperLeg_L
		{
			OFFSET -2.19248 -6.46944 0.0
			CHANNELS 6 Xposition Yposition Zposition Zrotation Xrotation Yrotation 
			JOINT LowerLeg_L
			{
				OFFSET 39.0811 0.0 -1.23785e-05
				CHANNELS 6 Xposition Yposition Zposition Zrotation Xrotation Yrotation 
				JOINT Foot_L
				{
					OFFSET 40.9854 0.0 -1.26872e-05
					CHANNELS 6 Xposition Yposition Zposition Zrotation Xrotation Yrotation 
					JOINT Toes_L
					{
						OFFSET 11.7543 0.0 0.0
						CHANNELS 6 Xposition Yposition Zposition Zrotation Xrotation Yrotation 
						End Site
						{
							OFFSET 0.0 0.0 0.0
						}
					}
				}
			}
		}
		JOINT UpperLeg_R
		{
			OFFSET -2.19251 6.46944 0.0
			CHANNELS 6 Xposition Yposition Zposition Zrotation Xrotation Yrotation 
			JOINT LowerLeg_R
			{
				OFFSET -39.0811 -0.00228153 -0.0401928
				CHANNELS 6 Xposition Yposition Zposition Zrotation Xrotation Yrotation 
				JOINT Foot_R
				{
					OFFSET -40.9854 0.0 0.0
					CHANNELS 6 Xposition Yposition Zposition Zrotation Xrotation Yrotation 
					JOINT Toes_R
					{
						OFFSET -11.7543 0.0 0.0
						CHANNELS 6 Xposition Yposition Zposition Zrotation Xrotation Yrotation 
						End Site
						{
							OFFSET 0.0 0.0 0.0
						}
					}
				}
			}
		}
	}
}
MOTION
Frames:	9
Frame Time:	0.0333333
0.000000 0.000000 0.000000 0.000000 0.000000 -0.000000 127.255000 90.746600 -125.582000 86.069800 3.212570 4.543750 15.735700 0.000005 -0.000001 82.868400 82.930400 -80.670500 8.984550 -0.406207 -0.000000 6.304140 -1.778270 4.489050 16.377300 -0.000001 -0.000001 1.373430 -3.515820 0.273219 6.456720 -0.000001 -0.000000 1.355400 -3.119110 0.017049 12.994200 -0.242716 4.980390 -89.454700 -1.661560 -71.828200 5.348090 -0.000007 -0.000001 -68.396300 32.914600 -12.612600 24.328600 0.000019 0.000005 0.314326 0.420208 -36.781800 22.291600 -0.000001 0.000005 9.432120 5.541400 -8.304960 12.994500 -0.242716 -4.980390 88.208200 4.936260 -70.020800 -5.348130 -0.000001 -0.000004 -68.543500 37.185000 -9.492050 -24.328900 0.000322 -0.000009 2.845440 8.052890 -19.541800 -22.291500 -0.000108 -0.000004 10.173900 5.374390 -2.123510 -2.192480 -6.469440 -0.000000 -172.379000 -4.127250 -10.012600 39.081100 -0.000007 -0.000012 -0.030385 0.012461 67.709900 40.985400 -0.000006 -0.000013 3.570540 -6.438530 -46.243000 11.754300 -0.000000 0.000003 -0.006244 -0.073045 -19.549800 -2.192510 6.469440 -0.000001 -171.004000 14.343400 167.825000 -39.081100 -0.002282 -0.040193 0.080399 -0.128309 31.001200 -40.985400 0.000008 0.000006 10.535300 -4.634150 -64.025200 -11.754300 -0.000006 -0.000006 -0.013734 -0.129689 -21.862500
0.000000 0.000000 0.000000 0.000000 0.000000 -0.000000 127.245000 91.386000 -122.987000 87.101200 1.179930 4.488420 15.735700 0.000005 -0.000001 87.322300 82.998500 -85.681500 8.984550 -0.406207 -0.000000 6.233800 -0.674235 3.314530 16.377300 -0.000001 -0.000001 1.326820 -2.896670 0.223656 6.456720 -0.000001 -0.000000 1.242400 -3.630990 0.013842 12.994200 -0.242716 4.980390 -89.328400 -1.964070 -71.117500 5.348090 -0.000007 -0.000001 -69.880300 33.076400 -10.959300 24.328600 0.000019 0.000005 0.344971 0.552023 -32.043800 22.291600 -0.000001 0.000005 8.527200 5.528710 -7.730850 12.994500 -0.242716 -4.980390 88.334600 4.962850 -71.423700 -5.348130 -0.000001 -0.000004 -67.035200 36.654900 -14.156000 -24.328900 0.000322 -0.000009 2.588400 7.820890 -18.383200 -22.291500 -0.000108 -0.000004 10.638000 5.372480 -2.062440 -2.192480 -6.469440 -0.000000 -174.122000 -5.263980 -14.026800 39.081100 -0.000007 -0.000012 -0.043743 0.017848 67.810100 40.985400 -0.000006 -0.000013 3.851080 -7.706070 -48.366700 11.754300 -0.000000 0.000003 -0.006242 -0.073030 -19.549200 -2.192510 6.469440 -0.000001 -172.637000 15.548700 171.439000 -39.081100 -0.002282 -0.040193 0.072281 -0.129163 28.103100 -40.985400 0.000008 0.000006 10.821800 -1.508740 -64.600800 -11.754300 -0.000006 -0.000006 -0.013836 -0.130356 -21.889900
0.000000 0.000000 0.000000 0.000000 0.000000 -0.000000 127.327000 91.881600 -120.426000 88.111900 -1.133100 4.608250 15.735700 0.000005 -0.000001 92.257000 83.034500 -91.135300 8.984550 -0.406207 -0.000000 6.150050 0.531287 2.212370 16.377300 -0.000001 -0.000001 1.376670 -2.254290 0.027280 6.456720 -0.000001 -0.000000 1.330080 -3.917370 -0.348719 12.994200 -0.242716 4.980390 -89.209400 -2.219330 -70.386800 5.348090 -0.000007 -0.000001 -71.353200 33.019300 -9.139700 24.328600 0.000019 0.000005 0.973640 1.893830 -27.253300 22.291600 -0.000001 0.000005 7.099670 5.501490 -6.583910 12.994500 -0.242716 -4.980390 88.500400 4.849290 -72.793400 -5.348130 -0.000001 -0.000004 -65.050500 36.686100 -18.802500 -24.328900 0.000322 -0.000009 2.412810 7.460910 -17.985600 -22.291500 -0.000108 -0.000004 11.008500 5.365860 -1.857700 -2.192480 -6.469440 -0.000000 -175.823000 -6.368630 -16.944900 39.081100 -0.000007 -0.000012 -0.043800 0.020463 64.964600 40.985400 -0.000006 -0.000013 4.274480 -7.605160 -51.185800 11.754300 -0.000000 0.000003 -0.005632 -0.067466 -19.322300 -2.192510 6.469440 -0.000001 -174.498000 15.967000 175.037000 -39.081100 -0.002282 -0.040193 0.058998 -0.117039 25.444900 -40.985400 0.000008 0.000006 10.806100 1.256670 -65.209500 -11.754300 -0.000006 -0.000006 -0.013384 -0.127391 -21.768300
0.000000 0.000000 0.000000 0.000000 0.000000 -0.000000 127.410000 92.176600 -117.899000 88.913200 -3.311920 4.694450 15.735700 0.000005 -0.000001 96.956900 82.973500 -96.244500 8.984550 -0.406207 -0.000000 6.175560 1.687520 1.332310 16.377300 -0.000001 -0.000001 1.165030 -1.748820 -0.160927 6.456720 -0.000001 -0.000000 1.371500 -4.028270 -1.044640 12.994200 -0.242716 4.980390 -89.185300 -2.223830 -69.872500 5.348090 -0.000007 -0.000001 -72.575700 32.474800 -7.388590 24.328600 0.000019 0.000005 1.834370 4.349670 -22.908700 22.291600 -0.000001 0.000005 5.930730 5.467290 -5.266160 12.994500 -0.242716 -4.980390 88.610100 4.810070 -73.862300 -5.348130 -0.000001 -0.000004 -62.240900 36.832200 -23.702000 -24.328900 0.000322 -0.000009 2.278550 6.831060 -18.505500 -22.291500 -0.000108 -0.000004 10.900200 5.372330 -2.058620 -2.192480 -6.469440 -0.000000 -177.026000 -7.101170 -19.048600 39.081100 -0.000007 -0.000012 -0.029556 0.017573 59.272500 40.985400 -0.000006 -0.000013 3.754220 -6.973760 -53.606400 11.754300 -0.000000 0.000003 -0.004155 -0.053051 -18.734800 -2.192510 6.469440 -0.000001 -176.126000 15.677500 178.268000 -39.081100 -0.002282 -0.040193 0.043791 -0.094890 23.101000 -40.985400 0.000008 0.000006 10.714900 3.338390 -65.769400 -11.754300 -0.000006 -0.000006 -0.012462 -0.121197 -21.514400
0.000000 0.000000 0.000000 0.000000 0.000000 -0.000000 127.480000 92.269300 -115.452000 89.333900 -4.995910 4.693830 15.735700 0.000005 -0.000001 100.082000 82.863800 -99.601200 8.984550 -0.406207 -0.000000 6.280330 2.485000 0.823596 16.377300 -0.000001 -0.000001 0.850235 -1.277370 -0.437035 6.456720 -0.000001 -0.000000 1.199510 -3.959150 -1.688100 12.994200 -0.242716 4.980390 -89.230300 -2.053390 -69.446900 5.348090 -0.000007 -0.000001 -73.805800 31.323200 -5.603720 24.328600 0.000019 0.000005 2.298150 6.654120 -19.106700 22.291600 -0.000001 0.000005 5.764340 5.439390 -4.266560 12.994500 -0.242716 -4.980390 88.666000 4.915630 -74.796400 -5.348130 -0.000001 -0.000004 -58.711200 36.850500 -28.737100 -24.328900 0.000322 -0.000009 1.985920 5.586880 -19.617700 -22.291500 -0.000108 -0.000004 10.795800 5.381570 -2.347790 -2.192480 -6.469440 -0.000000 -177.643000 -7.526340 -20.226100 39.081100 -0.000007 -0.000012 -0.017181 0.014029 50.773300 40.985400 -0.000006 -0.000013 3.968830 -6.344460 -54.956000 11.754300 -0.000000 0.000003 -0.005487 -0.066112 -19.267100 -2.192510 6.469440 -0.000001 -177.365000 15.444300 -178.893000 -39.081100 -0.002282 -0.040193 0.028804 -0.065965 21.123200 -40.985400 0.000008 0.000006 10.364300 4.828030 -66.420500 -11.754300 -0.000006 -0.000006 -0.012207 -0.119452 -21.442900
0.000000 0.000000 0.000000 0.000000 0.000000 -0.000000 127.495000 92.115200 -113.059000 89.261800 -6.112720 4.537130 15.735700 0.000005 -0.000001 101.840000 82.771600 -101.375000 8.984550 -0.406207 -0.000000 6.377960 2.951770 0.763407 16.377300 -0.000001 -0.000001 0.553874 -0.905430 -0.642223 6.456720 -0.000001 -0.000000 0.783844 -3.784300 -2.367600 12.994200 -0.242716 4.980390 -89.294700 -1.861310 -69.242200 5.348090 -0.000007 -0.000001 -75.214900 29.604600 -3.809060 24.328600 0.000019 0.000005 2.319680 8.252880 -15.763600 22.291600 -0.000001 0.000005 6.446740 5.422330 -3.679180 12.994500 -0.242716 -4.980390 88.688000 5.049240 -75.414100 -5.348130 -0.000001 -0.000004 -54.664100 36.716700 -33.769100 -24.328900 0.000322 -0.000009 1.760580 4.574930 -21.088700 -22.291500 -0.000108 -0.000004 10.699600 5.391440 -2.661270 -2.192480 -6.469440 -0.000000 -177.517000 -7.596810 -20.586600 39.081100 -0.000007 -0.000012 -0.007191 0.008623 39.832200 40.985400 -0.000006 -0.000013 3.830350 -5.499320 -54.750300 11.754300 -0.000000 0.000003 -0.006281 -0.073373 -19.563200 -2.192510 6.469440 -0.000001 -178.058000 15.470000 -176.552000 -39.081100 -0.002282 -0.040193 0.019492 -0.044792 19.850600 -40.985400 0.000008 0.000006 10.273800 5.955320 -67.673900 -11.754300 -0.000006 -0.000006 -0.011407 -0.113869 -21.214300
0.000000 0.000000 0.000000 0.000000 0.000000 -0.000000 127.483000 91.645500 -110.528000 88.793400 -6.585400 4.256580 15.735700 0.000005 -0.000001 102.414000 82.747800 -101.808000 8.984550 -0.406207 -0.000000 6.390200 3.101640 1.038100 16.377300 -0.000001 -0.000001 0.284346 -0.694664 -0.717117 6.456720 -0.000001 -0.000000 0.349279 -3.451590 -2.960050 12.994200 -0.242716 4.980390 -89.253600 -1.968180 -69.225800 5.348090 -0.000007 -0.000001 -76.884300 27.935900 -1.999590 24.328600 0.000019 0.000005 2.209550 9.395050 -13.299300 22.291600 -0.000001 0.000005 7.176640 5.402180 -3.009010 12.994500 -0.242716 -4.980390 88.722100 5.018120 -75.692800 -5.348130 -0.000001 -0.000004 -51.318900 36.080100 -37.925900 -24.328900 0.000322 -0.000009 1.625090 3.873540 -22.795800 -22.291500 -0.000108 -0.000004 10.624900 5.406890 -3.162590 -2.192480 -6.469440 -0.000000 -176.901000 -7.192200 -20.386800 39.081100 -0.000007 -0.000012 -0.001776 0.003395 27.627100 40.985400 -0.000006 -0.000013 3.253040 -3.950410 -53.296800 11.754300 -0.000000 0.000003 -0.005866 -0.069618 -19.410000 -2.192510 6.469440 -0.000001 -178.534000 16.331000 -174.636000 -39.081100 -0.002282 -0.040193 0.013895 -0.029647 19.628200 -40.985400 0.000008 0.000006 10.154700 7.075490 -69.874200 -11.754300 -0.000006 -0.000006 -0.010676 -0.108620 -20.999500
0.000000 0.000000 0.000000 0.000000 0.000000 -0.000000 127.465000 90.969500 -107.787000 88.120200 -6.771250 3.942070 15.735700 0.000005 -0.000001 103.008000 82.789500 -102.195000 8.984550 -0.406207 -0.000000 6.270280 3.225990 1.447210 16.377300 -0.000001 -0.000001 0.165034 -0.616851 -0.621738 6.456720 -0.000001 -0.000000 0.037759 -3.111800 -3.402700 12.994200 -0.242716 4.980390 -89.113500 -2.364670 -69.442300 5.348090 -0.000007 -0.000001 -78.618800 26.556100 -0.267538 24.328600 0.000019 0.000005 2.063970 9.996610 -11.728300 22.291600 -0.000001 0.000005 7.195100 5.386230 -2.494480 12.994500 -0.242716 -4.980390 88.772900 4.819810 -75.697800 -5.348130 -0.000001 -0.000004 -49.449800 34.983200 -40.607500 -24.328900 0.000322 -0.000009 1.706770 3.733630 -24.601200 -22.291500 -0.000108 -0.000004 10.906700 5.411260 -3.307030 -2.192480 -6.469440 -0.000000 -176.419000 -7.577460 -19.844400 39.081100 -0.000007 -0.000012 -0.000252 0.000907 15.527800 40.985400 -0.000006 -0.000013 2.711530 -1.432840 -51.512800 11.754300 -0.000000 0.000003 -0.005521 -0.066433 -19.280100 -2.192510 6.469440 -0.000001 -178.824000 16.928300 -172.878000 -39.081100 -0.002282 -0.040193 0.006509 -0.008737 20.041200 -40.985400 0.000008 0.000006 9.891260 7.674820 -72.254100 -11.754300 -0.000006 -0.000006 -0.010128 -0.104594 -20.834800
0.000000 0.000000 0.000000 0.000000 0.000000 -0.000000 127.551000 90.159300 -104.797000 87.645500 -7.221890 3.481910 15.735700 0.000005 -0.000001 104.522000 82.866400 -103.604000 8.984550 -0.406207 -0.000000 6.026500 3.554040 1.648330 16.377300 -0.000001 -0.000001 0.008866 -0.510197 -0.433710 6.456720 -0.000001 -0.000000 -0.173587 -2.821760 -3.617710 12.994200 -0.242716 4.980390 -89.039200 -2.583390 -69.590800 5.348090 -0.000007 -0.000001 -79.750600 26.099900 1.011380 24.328600 0.000019 0.000005 1.965750 10.077100 -11.097800 22.291600 -0.000001 0.000005 6.157330 5.370370 -1.996180 12.994500 -0.242716 -4.980390 88.794900 4.724730 -75.673400 -5.348130 -0.000001 -0.000004 -48.851100 33.566200 -41.841700 -24.328900 0.000322 -0.000009 1.906130 3.850030 -26.378900 -22.291500 -0.000108 -0.000004 11.355100 5.415210 -3.438410 -2.192480 -6.469440 -0.000000 -177.153000 -10.901100 -19.789000 39.081100 -0.000007 -0.000012 -0.000232 0.002169 6.086640 40.985400 -0.000006 -0.000013 -0.931480 1.353920 -50.822000 11.754300 -0.000000 0.000003 -0.005748 -0.068538 -19.366000 -2.192510 6.469440 -0.000001 -179.080000 16.280000 -171.942000 -39.081100 -0.002282 -0.040193 0.000629 0.006758 21.702300 -40.985400 0.000008 0.000006 9.553960 7.363520 -74.401300 -11.754300 -0.000006 -0.000006 -0.009226 -0.097756 -20.555200
